<?xml version="1.0" encoding="UTF-8" standalone="no"?>
<!-- Created with Inkscape (http://www.inkscape.org/) -->

<svg
   width="210mm"
   height="297mm"
   viewBox="0 0 210 297"
   version="1.1"
   id="svg1"
   inkscape:version="1.4 (e7c3feb100, 2024-10-09)"
   sodipodi:docname="drawing.svg"
   inkscape:export-filename="../../BH-RT/manuscript/nextpoint.png"
   inkscape:export-xdpi="500"
   inkscape:export-ydpi="500"
   xmlns:inkscape="http://www.inkscape.org/namespaces/inkscape"
   xmlns:sodipodi="http://sodipodi.sourceforge.net/DTD/sodipodi-0.dtd"
   xmlns="http://www.w3.org/2000/svg"
   xmlns:svg="http://www.w3.org/2000/svg">
  <sodipodi:namedview
     id="namedview1"
     pagecolor="#ffffff"
     bordercolor="#000000"
     borderopacity="0.25"
     inkscape:showpageshadow="2"
     inkscape:pageopacity="0.0"
     inkscape:pagecheckerboard="0"
     inkscape:deskcolor="#d1d1d1"
     inkscape:document-units="mm"
     inkscape:zoom="2.19"
     inkscape:cx="299.31507"
     inkscape:cy="506.39269"
     inkscape:window-width="1920"
     inkscape:window-height="1011"
     inkscape:window-x="0"
     inkscape:window-y="0"
     inkscape:window-maximized="1"
     inkscape:current-layer="layer1" />
  <defs
     id="defs1" />
  <g
     inkscape:label="Layer 1"
     inkscape:groupmode="layer"
     id="layer1">
    <g
       fill="none"
       stroke="#000000"
       stroke-opacity="1"
       stroke-width="1"
       stroke-linecap="round"
       stroke-linejoin="round"
       transform="matrix(0.17035801,0,0,0.17035801,-3.8234796,113.49979)"
       font-family="Cantarell"
       font-size="11px"
       font-weight="400"
       font-style="normal"
       id="g13">
      <polyline
         fill="none"
         vector-effect="none"
         points="426.7,214.3 426.6,214.2 426.6,214 426.6,213.8 426.6,213.6 426.5,213.4 426.5,213.3 426.4,213.1 426.3,212.9 426.3,212.8 426.2,212.6 426.1,212.4 426,212.3 425.9,212.1 425.8,212 425.6,211.9 425.5,211.7 425.4,211.6 425.2,211.5 425.1,211.4 424.9,211.3 424.7,211.2 424.6,211.2 424.4,211.1 424.2,211 424.1,211 423.9,210.9 423.7,210.9 423.5,210.9 423.3,210.9 423.2,210.8 423,210.9 422.8,210.9 422.6,210.9 422.4,210.9 422.2,211 422.1,211 421.9,211.1 421.7,211.2 421.6,211.2 421.4,211.3 421.2,211.4 421.1,211.5 420.9,211.6 420.8,211.7 420.7,211.9 420.5,212 420.4,212.1 420.3,212.3 420.2,212.4 420.1,212.6 420,212.8 420,212.9 419.9,213.1 419.8,213.3 419.8,213.4 419.7,213.6 419.7,213.8 419.7,214 419.7,214.2 419.7,214.3 419.7,214.5 419.7,214.7 419.7,214.9 419.7,215.1 419.8,215.3 419.8,215.4 419.9,215.6 420,215.8 420,215.9 420.1,216.1 420.2,216.3 420.3,216.4 420.4,216.6 420.5,216.7 420.7,216.8 420.8,217 420.9,217.1 421.1,217.2 421.2,217.3 421.4,217.4 421.6,217.5 421.7,217.5 421.9,217.6 422.1,217.7 422.2,217.7 422.4,217.8 422.6,217.8 422.8,217.8 423,217.8 423.2,217.8 423.3,217.8 423.5,217.8 423.7,217.8 423.9,217.8 424.1,217.7 424.2,217.7 424.4,217.6 424.6,217.5 424.7,217.5 424.9,217.4 425.1,217.3 425.2,217.2 425.4,217.1 425.5,217 425.6,216.8 425.8,216.7 425.9,216.6 426,216.4 426.1,216.3 426.2,216.1 426.3,215.9 426.3,215.8 426.4,215.6 426.5,215.4 426.5,215.3 426.6,215.1 426.6,214.9 426.6,214.7 426.6,214.5 426.7,214.3 "
         id="polyline2" />
      <polyline
         fill="none"
         vector-effect="none"
         points="426.7,214.3 426.7,214.3 426.6,214.2 426.6,214 426.6,213.8 426.6,213.6 426.5,213.4 426.5,213.3 426.4,213.1 426.3,212.9 426.3,212.8 426.2,212.6 426.1,212.4 426,212.3 425.9,212.1 425.8,212 425.6,211.9 425.5,211.7 425.4,211.6 425.2,211.5 425.1,211.4 424.9,211.3 424.7,211.2 424.6,211.2 424.4,211.1 424.2,211 424.1,211 423.9,210.9 423.7,210.9 423.5,210.9 423.3,210.9 423.2,210.8 423,210.9 422.8,210.9 422.6,210.9 422.4,210.9 422.2,211 422.1,211 421.9,211.1 421.7,211.2 421.6,211.2 421.4,211.3 421.2,211.4 421.1,211.5 420.9,211.6 420.8,211.7 420.7,211.9 420.5,212 420.4,212.1 420.3,212.3 420.2,212.4 420.1,212.6 420,212.8 420,212.9 419.9,213.1 419.8,213.3 419.8,213.4 419.7,213.6 419.7,213.8 419.7,214 419.7,214.2 419.7,214.3 419.7,214.5 419.7,214.7 419.7,214.9 419.7,215.1 419.8,215.3 419.8,215.4 419.9,215.6 420,215.8 420,215.9 420.1,216.1 420.2,216.3 420.3,216.4 420.4,216.6 420.5,216.7 420.7,216.8 420.8,217 420.9,217.1 421.1,217.2 421.2,217.3 421.4,217.4 421.6,217.5 421.7,217.5 421.9,217.6 422.1,217.7 422.2,217.7 422.4,217.8 422.6,217.8 422.8,217.8 423,217.8 423.2,217.8 423.3,217.8 423.5,217.8 423.7,217.8 423.9,217.8 424.1,217.7 424.2,217.7 424.4,217.6 424.6,217.5 424.7,217.5 424.9,217.4 425.1,217.3 425.2,217.2 425.4,217.1 425.5,217 425.6,216.8 425.8,216.7 425.9,216.6 426,216.4 426.1,216.3 426.2,216.1 426.3,215.9 426.3,215.8 426.4,215.6 426.5,215.4 426.5,215.3 426.6,215.1 426.6,214.9 426.6,214.7 426.6,214.5 426.7,214.3 "
         id="polyline3" />
      <polyline
         fill="none"
         vector-effect="none"
         points="426.7,214.3 426.7,214.3 426.6,214.2 426.6,214 426.6,213.8 426.6,213.6 426.5,213.4 426.5,213.3 426.4,213.1 426.3,212.9 426.3,212.8 426.2,212.6 426.1,212.4 426,212.3 425.9,212.1 425.8,212 425.6,211.9 425.5,211.7 425.4,211.6 425.2,211.5 425.1,211.4 424.9,211.3 424.7,211.2 424.6,211.2 424.4,211.1 424.2,211 424.1,211 423.9,210.9 423.7,210.9 423.5,210.9 423.3,210.9 423.2,210.8 423,210.9 422.8,210.9 422.6,210.9 422.4,210.9 422.2,211 422.1,211 421.9,211.1 421.7,211.2 421.6,211.2 421.4,211.3 421.2,211.4 421.1,211.5 420.9,211.6 420.8,211.7 420.7,211.9 420.5,212 420.4,212.1 420.3,212.3 420.2,212.4 420.1,212.6 420,212.8 420,212.9 419.9,213.1 419.8,213.3 419.8,213.4 419.7,213.6 419.7,213.8 419.7,214 419.7,214.2 419.7,214.3 419.7,214.5 419.7,214.7 419.7,214.9 419.7,215.1 419.8,215.3 419.8,215.4 419.9,215.6 420,215.8 420,215.9 420.1,216.1 420.2,216.3 420.3,216.4 420.4,216.6 420.5,216.7 420.7,216.8 420.8,217 420.9,217.1 421.1,217.2 421.2,217.3 421.4,217.4 421.6,217.5 421.7,217.5 421.9,217.6 422.1,217.7 422.2,217.7 422.4,217.8 422.6,217.8 422.8,217.8 423,217.8 423.2,217.8 423.3,217.8 423.5,217.8 423.7,217.8 423.9,217.8 424.1,217.7 424.2,217.7 424.4,217.6 424.6,217.5 424.7,217.5 424.9,217.4 425.1,217.3 425.2,217.2 425.4,217.1 425.5,217 425.6,216.8 425.8,216.7 425.9,216.6 426,216.4 426.1,216.3 426.2,216.1 426.3,215.9 426.3,215.8 426.4,215.6 426.5,215.4 426.5,215.3 426.6,215.1 426.6,214.9 426.6,214.7 426.6,214.5 426.7,214.3 "
         id="polyline4" />
      <polyline
         fill="none"
         vector-effect="none"
         points="426.7,214.3 426.7,214.3 426.6,214.2 426.6,214 426.6,213.8 426.6,213.6 426.5,213.4 426.5,213.3 426.4,213.1 426.3,212.9 426.3,212.8 426.2,212.6 426.1,212.4 426,212.3 425.9,212.1 425.8,212 425.6,211.9 425.5,211.7 425.4,211.6 425.2,211.5 425.1,211.4 424.9,211.3 424.7,211.2 424.6,211.2 424.4,211.1 424.2,211 424.1,211 423.9,210.9 423.7,210.9 423.5,210.9 423.3,210.9 423.2,210.8 423,210.9 422.8,210.9 422.6,210.9 422.4,210.9 422.2,211 422.1,211 421.9,211.1 421.7,211.2 421.6,211.2 421.4,211.3 421.2,211.4 421.1,211.5 420.9,211.6 420.8,211.7 420.7,211.9 420.5,212 420.4,212.1 420.3,212.3 420.2,212.4 420.1,212.6 420,212.8 420,212.9 419.9,213.1 419.8,213.3 419.8,213.4 419.7,213.6 419.7,213.8 419.7,214 419.7,214.2 419.7,214.3 419.7,214.5 419.7,214.7 419.7,214.9 419.7,215.1 419.8,215.3 419.8,215.4 419.9,215.6 420,215.8 420,215.9 420.1,216.1 420.2,216.3 420.3,216.4 420.4,216.6 420.5,216.7 420.7,216.8 420.8,217 420.9,217.1 421.1,217.2 421.2,217.3 421.4,217.4 421.6,217.5 421.7,217.5 421.9,217.6 422.1,217.7 422.2,217.7 422.4,217.8 422.6,217.8 422.8,217.8 423,217.8 423.2,217.8 423.3,217.8 423.5,217.8 423.7,217.8 423.9,217.8 424.1,217.7 424.2,217.7 424.4,217.6 424.6,217.5 424.7,217.5 424.9,217.4 425.1,217.3 425.2,217.2 425.4,217.1 425.5,217 425.6,216.8 425.8,216.7 425.9,216.6 426,216.4 426.1,216.3 426.2,216.1 426.3,215.9 426.3,215.8 426.4,215.6 426.5,215.4 426.5,215.3 426.6,215.1 426.6,214.9 426.6,214.7 426.6,214.5 426.7,214.3 "
         id="polyline5" />
      <polyline
         fill="none"
         vector-effect="none"
         points="426.7,214.3 426.7,214.3 426.6,214.2 426.6,214 426.6,213.8 426.6,213.6 426.5,213.4 426.5,213.3 426.4,213.1 426.3,212.9 426.3,212.8 426.2,212.6 426.1,212.4 426,212.3 425.9,212.1 425.8,212 425.6,211.9 425.5,211.7 425.4,211.6 425.2,211.5 425.1,211.4 424.9,211.3 424.7,211.2 424.6,211.2 424.4,211.1 424.2,211 424.1,211 423.9,210.9 423.7,210.9 423.5,210.9 423.3,210.9 423.2,210.8 423,210.9 422.8,210.9 422.6,210.9 422.4,210.9 422.2,211 422.1,211 421.9,211.1 421.7,211.2 421.6,211.2 421.4,211.3 421.2,211.4 421.1,211.5 420.9,211.6 420.8,211.7 420.7,211.9 420.5,212 420.4,212.1 420.3,212.3 420.2,212.4 420.1,212.6 420,212.8 420,212.9 419.9,213.1 419.8,213.3 419.8,213.4 419.7,213.6 419.7,213.8 419.7,214 419.7,214.2 419.7,214.3 419.7,214.5 419.7,214.7 419.7,214.9 419.7,215.1 419.8,215.3 419.8,215.4 419.9,215.6 420,215.8 420,215.9 420.1,216.1 420.2,216.3 420.3,216.4 420.4,216.6 420.5,216.7 420.7,216.8 420.8,217 420.9,217.1 421.1,217.2 421.2,217.3 421.4,217.4 421.6,217.5 421.7,217.5 421.9,217.6 422.1,217.7 422.2,217.7 422.4,217.8 422.6,217.8 422.8,217.8 423,217.8 423.2,217.8 423.3,217.8 423.5,217.8 423.7,217.8 423.9,217.8 424.1,217.7 424.2,217.7 424.4,217.6 424.6,217.5 424.7,217.5 424.9,217.4 425.1,217.3 425.2,217.2 425.4,217.1 425.5,217 425.6,216.8 425.8,216.7 425.9,216.6 426,216.4 426.1,216.3 426.2,216.1 426.3,215.9 426.3,215.8 426.4,215.6 426.5,215.4 426.5,215.3 426.6,215.1 426.6,214.9 426.6,214.7 426.6,214.5 426.7,214.3 "
         id="polyline6" />
      <polyline
         fill="none"
         vector-effect="none"
         points="426.7,214.3 426.7,214.3 426.6,214.2 426.6,214 426.6,213.8 426.6,213.6 426.5,213.4 426.5,213.3 426.4,213.1 426.3,212.9 426.3,212.8 426.2,212.6 426.1,212.4 426,212.3 425.9,212.1 425.8,212 425.6,211.9 425.5,211.7 425.4,211.6 425.2,211.5 425.1,211.4 424.9,211.3 424.7,211.2 424.6,211.2 424.4,211.1 424.2,211 424.1,211 423.9,210.9 423.7,210.9 423.5,210.9 423.3,210.9 423.2,210.8 423,210.9 422.8,210.9 422.6,210.9 422.4,210.9 422.2,211 422.1,211 421.9,211.1 421.7,211.2 421.6,211.2 421.4,211.3 421.2,211.4 421.1,211.5 420.9,211.6 420.8,211.7 420.7,211.9 420.5,212 420.4,212.1 420.3,212.3 420.2,212.4 420.1,212.6 420,212.8 420,212.9 419.9,213.1 419.8,213.3 419.8,213.4 419.7,213.6 419.7,213.8 419.7,214 419.7,214.2 419.7,214.3 419.7,214.5 419.7,214.7 419.7,214.9 419.7,215.1 419.8,215.3 419.8,215.4 419.9,215.6 420,215.8 420,215.9 420.1,216.1 420.2,216.3 420.3,216.4 420.4,216.6 420.5,216.7 420.7,216.8 420.8,217 420.9,217.1 421.1,217.2 421.2,217.3 421.4,217.4 421.6,217.5 421.7,217.5 421.9,217.6 422.1,217.7 422.2,217.7 422.4,217.8 422.6,217.8 422.8,217.8 423,217.8 423.2,217.8 423.3,217.8 423.5,217.8 423.7,217.8 423.9,217.8 424.1,217.7 424.2,217.7 424.4,217.6 424.6,217.5 424.7,217.5 424.9,217.4 425.1,217.3 425.2,217.2 425.4,217.1 425.5,217 425.6,216.8 425.8,216.7 425.9,216.6 426,216.4 426.1,216.3 426.2,216.1 426.3,215.9 426.3,215.8 426.4,215.6 426.5,215.4 426.5,215.3 426.6,215.1 426.6,214.9 426.6,214.7 426.6,214.5 426.7,214.3 "
         id="polyline7" />
      <polyline
         fill="none"
         vector-effect="none"
         points="426.7,214.3 426.7,214.3 426.6,214.2 426.6,214 426.6,213.8 426.6,213.6 426.5,213.4 426.5,213.3 426.4,213.1 426.3,212.9 426.3,212.8 426.2,212.6 426.1,212.4 426,212.3 425.9,212.1 425.8,212 425.6,211.9 425.5,211.7 425.4,211.6 425.2,211.5 425.1,211.4 424.9,211.3 424.7,211.2 424.6,211.2 424.4,211.1 424.2,211 424.1,211 423.9,210.9 423.7,210.9 423.5,210.9 423.3,210.9 423.2,210.8 423,210.9 422.8,210.9 422.6,210.9 422.4,210.9 422.2,211 422.1,211 421.9,211.1 421.7,211.2 421.6,211.2 421.4,211.3 421.2,211.4 421.1,211.5 420.9,211.6 420.8,211.7 420.7,211.9 420.5,212 420.4,212.1 420.3,212.3 420.2,212.4 420.1,212.6 420,212.8 420,212.9 419.9,213.1 419.8,213.3 419.8,213.4 419.7,213.6 419.7,213.8 419.7,214 419.7,214.2 419.7,214.3 419.7,214.5 419.7,214.7 419.7,214.9 419.7,215.1 419.8,215.3 419.8,215.4 419.9,215.6 420,215.8 420,215.9 420.1,216.1 420.2,216.3 420.3,216.4 420.4,216.6 420.5,216.7 420.7,216.8 420.8,217 420.9,217.1 421.1,217.2 421.2,217.3 421.4,217.4 421.6,217.5 421.7,217.5 421.9,217.6 422.1,217.7 422.2,217.7 422.4,217.8 422.6,217.8 422.8,217.8 423,217.8 423.2,217.8 423.3,217.8 423.5,217.8 423.7,217.8 423.9,217.8 424.1,217.7 424.2,217.7 424.4,217.6 424.6,217.5 424.7,217.5 424.9,217.4 425.1,217.3 425.2,217.2 425.4,217.1 425.5,217 425.6,216.8 425.8,216.7 425.9,216.6 426,216.4 426.1,216.3 426.2,216.1 426.3,215.9 426.3,215.8 426.4,215.6 426.5,215.4 426.5,215.3 426.6,215.1 426.6,214.9 426.6,214.7 426.6,214.5 426.7,214.3 "
         id="polyline8" />
      <polyline
         fill="none"
         vector-effect="none"
         points="426.7,214.3 426.7,214.3 426.6,214.2 426.6,214 426.6,213.8 426.6,213.6 426.5,213.4 426.5,213.3 426.4,213.1 426.3,212.9 426.3,212.8 426.2,212.6 426.1,212.4 426,212.3 425.9,212.1 425.8,212 425.6,211.9 425.5,211.7 425.4,211.6 425.2,211.5 425.1,211.4 424.9,211.3 424.7,211.2 424.6,211.2 424.4,211.1 424.2,211 424.1,211 423.9,210.9 423.7,210.9 423.5,210.9 423.3,210.9 423.2,210.8 423,210.9 422.8,210.9 422.6,210.9 422.4,210.9 422.2,211 422.1,211 421.9,211.1 421.7,211.2 421.6,211.2 421.4,211.3 421.2,211.4 421.1,211.5 420.9,211.6 420.8,211.7 420.7,211.9 420.5,212 420.4,212.1 420.3,212.3 420.2,212.4 420.1,212.6 420,212.8 420,212.9 419.9,213.1 419.8,213.3 419.8,213.4 419.7,213.6 419.7,213.8 419.7,214 419.7,214.2 419.7,214.3 419.7,214.5 419.7,214.7 419.7,214.9 419.7,215.1 419.8,215.3 419.8,215.4 419.9,215.6 420,215.8 420,215.9 420.1,216.1 420.2,216.3 420.3,216.4 420.4,216.6 420.5,216.7 420.7,216.8 420.8,217 420.9,217.1 421.1,217.2 421.2,217.3 421.4,217.4 421.6,217.5 421.7,217.5 421.9,217.6 422.1,217.7 422.2,217.7 422.4,217.8 422.6,217.8 422.8,217.8 423,217.8 423.2,217.8 423.3,217.8 423.5,217.8 423.7,217.8 423.9,217.8 424.1,217.7 424.2,217.7 424.4,217.6 424.6,217.5 424.7,217.5 424.9,217.4 425.1,217.3 425.2,217.2 425.4,217.1 425.5,217 425.6,216.8 425.8,216.7 425.9,216.6 426,216.4 426.1,216.3 426.2,216.1 426.3,215.9 426.3,215.8 426.4,215.6 426.5,215.4 426.5,215.3 426.6,215.1 426.6,214.9 426.6,214.7 426.6,214.5 426.7,214.3 "
         id="polyline9" />
      <polyline
         fill="none"
         vector-effect="none"
         points="426.7,214.3 426.7,214.3 426.6,214.2 426.6,214 426.6,213.8 426.6,213.6 426.5,213.4 426.5,213.3 426.4,213.1 426.3,212.9 426.3,212.8 426.2,212.6 426.1,212.4 426,212.3 425.9,212.1 425.8,212 425.6,211.9 425.5,211.7 425.4,211.6 425.2,211.5 425.1,211.4 424.9,211.3 424.7,211.2 424.6,211.2 424.4,211.1 424.2,211 424.1,211 423.9,210.9 423.7,210.9 423.5,210.9 423.3,210.9 423.2,210.8 423,210.9 422.8,210.9 422.6,210.9 422.4,210.9 422.2,211 422.1,211 421.9,211.1 421.7,211.2 421.6,211.2 421.4,211.3 421.2,211.4 421.1,211.5 420.9,211.6 420.8,211.7 420.7,211.9 420.5,212 420.4,212.1 420.3,212.3 420.2,212.4 420.1,212.6 420,212.8 420,212.9 419.9,213.1 419.8,213.3 419.8,213.4 419.7,213.6 419.7,213.8 419.7,214 419.7,214.2 419.7,214.3 419.7,214.5 419.7,214.7 419.7,214.9 419.7,215.1 419.8,215.3 419.8,215.4 419.9,215.6 420,215.8 420,215.9 420.1,216.1 420.2,216.3 420.3,216.4 420.4,216.6 420.5,216.7 420.7,216.8 420.8,217 420.9,217.1 421.1,217.2 421.2,217.3 421.4,217.4 421.6,217.5 421.7,217.5 421.9,217.6 422.1,217.7 422.2,217.7 422.4,217.8 422.6,217.8 422.8,217.8 423,217.8 423.2,217.8 423.3,217.8 423.5,217.8 423.7,217.8 423.9,217.8 424.1,217.7 424.2,217.7 424.4,217.6 424.6,217.5 424.7,217.5 424.9,217.4 425.1,217.3 425.2,217.2 425.4,217.1 425.5,217 425.6,216.8 425.8,216.7 425.9,216.6 426,216.4 426.1,216.3 426.2,216.1 426.3,215.9 426.3,215.8 426.4,215.6 426.5,215.4 426.5,215.3 426.6,215.1 426.6,214.9 426.6,214.7 426.6,214.5 426.7,214.3 "
         id="polyline10" />
      <polyline
         fill="none"
         vector-effect="none"
         points="426.7,214.3 426.7,214.3 426.6,214.2 426.6,214 426.6,213.8 426.6,213.6 426.5,213.4 426.5,213.3 426.4,213.1 426.3,212.9 426.3,212.8 426.2,212.6 426.1,212.4 426,212.3 425.9,212.1 425.8,212 425.6,211.9 425.5,211.7 425.4,211.6 425.2,211.5 425.1,211.4 424.9,211.3 424.7,211.2 424.6,211.2 424.4,211.1 424.2,211 424.1,211 423.9,210.9 423.7,210.9 423.5,210.9 423.3,210.9 423.2,210.8 423,210.9 422.8,210.9 422.6,210.9 422.4,210.9 422.2,211 422.1,211 421.9,211.1 421.7,211.2 421.6,211.2 421.4,211.3 421.2,211.4 421.1,211.5 420.9,211.6 420.8,211.7 420.7,211.9 420.5,212 420.4,212.1 420.3,212.3 420.2,212.4 420.1,212.6 420,212.8 420,212.9 419.9,213.1 419.8,213.3 419.8,213.4 419.7,213.6 419.7,213.8 419.7,214 419.7,214.2 419.7,214.3 419.7,214.5 419.7,214.7 419.7,214.9 419.7,215.1 419.8,215.3 419.8,215.4 419.9,215.6 420,215.8 420,215.9 420.1,216.1 420.2,216.3 420.3,216.4 420.4,216.6 420.5,216.7 420.7,216.8 420.8,217 420.9,217.1 421.1,217.2 421.2,217.3 421.4,217.4 421.6,217.5 421.7,217.5 421.9,217.6 422.1,217.7 422.2,217.7 422.4,217.8 422.6,217.8 422.8,217.8 423,217.8 423.2,217.8 423.3,217.8 423.5,217.8 423.7,217.8 423.9,217.8 424.1,217.7 424.2,217.7 424.4,217.6 424.6,217.5 424.7,217.5 424.9,217.4 425.1,217.3 425.2,217.2 425.4,217.1 425.5,217 425.6,216.8 425.8,216.7 425.9,216.6 426,216.4 426.1,216.3 426.2,216.1 426.3,215.9 426.3,215.8 426.4,215.6 426.5,215.4 426.5,215.3 426.6,215.1 426.6,214.9 426.6,214.7 426.6,214.5 426.7,214.3 "
         id="polyline11" />
      <polyline
         fill="none"
         vector-effect="none"
         points="426.7,214.3 426.7,214.3 426.6,214.2 426.6,214 426.6,213.8 426.6,213.6 426.5,213.4 426.5,213.3 426.4,213.1 426.3,212.9 426.3,212.8 426.2,212.6 426.1,212.4 426,212.3 425.9,212.1 425.8,212 425.6,211.9 425.5,211.7 425.4,211.6 425.2,211.5 425.1,211.4 424.9,211.3 424.7,211.2 424.6,211.2 424.4,211.1 424.2,211 424.1,211 423.9,210.9 423.7,210.9 423.5,210.9 423.3,210.9 423.2,210.8 423,210.9 422.8,210.9 422.6,210.9 422.4,210.9 422.2,211 422.1,211 421.9,211.1 421.7,211.2 421.6,211.2 421.4,211.3 421.2,211.4 421.1,211.5 420.9,211.6 420.8,211.7 420.7,211.9 420.5,212 420.4,212.1 420.3,212.3 420.2,212.4 420.1,212.6 420,212.8 420,212.9 419.9,213.1 419.8,213.3 419.8,213.4 419.7,213.6 419.7,213.8 419.7,214 419.7,214.2 419.7,214.3 419.7,214.5 419.7,214.7 419.7,214.9 419.7,215.1 419.8,215.3 419.8,215.4 419.9,215.6 420,215.8 420,215.9 420.1,216.1 420.2,216.3 420.3,216.4 420.4,216.6 420.5,216.7 420.7,216.8 420.8,217 420.9,217.1 421.1,217.2 421.2,217.3 421.4,217.4 421.6,217.5 421.7,217.5 421.9,217.6 422.1,217.7 422.2,217.7 422.4,217.8 422.6,217.8 422.8,217.8 423,217.8 423.2,217.8 423.3,217.8 423.5,217.8 423.7,217.8 423.9,217.8 424.1,217.7 424.2,217.7 424.4,217.6 424.6,217.5 424.7,217.5 424.9,217.4 425.1,217.3 425.2,217.2 425.4,217.1 425.5,217 425.6,216.8 425.8,216.7 425.9,216.6 426,216.4 426.1,216.3 426.2,216.1 426.3,215.9 426.3,215.8 426.4,215.6 426.5,215.4 426.5,215.3 426.6,215.1 426.6,214.9 426.6,214.7 426.6,214.5 426.7,214.3 "
         id="polyline12" />
      <polyline
         fill="none"
         vector-effect="none"
         points="426.7,214.3 426.7,214.3 426.6,214.2 426.6,214 426.6,213.8 426.6,213.6 426.5,213.4 426.5,213.3 426.4,213.1 426.3,212.9 426.3,212.8 426.2,212.6 426.1,212.4 426,212.3 425.9,212.1 425.8,212 425.6,211.9 425.5,211.7 425.4,211.6 425.2,211.5 425.1,211.4 424.9,211.3 424.7,211.2 424.6,211.2 424.4,211.1 424.2,211 424.1,211 423.9,210.9 423.7,210.9 423.5,210.9 423.3,210.9 423.2,210.8 423,210.9 422.8,210.9 422.6,210.9 422.4,210.9 422.2,211 422.1,211 421.9,211.1 421.7,211.2 421.6,211.2 421.4,211.3 421.2,211.4 421.1,211.5 420.9,211.6 420.8,211.7 420.7,211.9 420.5,212 420.4,212.1 420.3,212.3 420.2,212.4 420.1,212.6 420,212.8 420,212.9 419.9,213.1 419.8,213.3 419.8,213.4 419.7,213.6 419.7,213.8 419.7,214 419.7,214.2 419.7,214.3 419.7,214.5 419.7,214.7 419.7,214.9 419.7,215.1 419.8,215.3 419.8,215.4 419.9,215.6 420,215.8 420,215.9 420.1,216.1 420.2,216.3 420.3,216.4 420.4,216.6 420.5,216.7 420.7,216.8 420.8,217 420.9,217.1 421.1,217.2 421.2,217.3 421.4,217.4 421.6,217.5 421.7,217.5 421.9,217.6 422.1,217.7 422.2,217.7 422.4,217.8 422.6,217.8 422.8,217.8 423,217.8 423.2,217.8 423.3,217.8 423.5,217.8 423.7,217.8 423.9,217.8 424.1,217.7 424.2,217.7 424.4,217.6 424.6,217.5 424.7,217.5 424.9,217.4 425.1,217.3 425.2,217.2 425.4,217.1 425.5,217 425.6,216.8 425.8,216.7 425.9,216.6 426,216.4 426.1,216.3 426.2,216.1 426.3,215.9 426.3,215.8 426.4,215.6 426.5,215.4 426.5,215.3 426.6,215.1 426.6,214.9 426.6,214.7 426.6,214.5 426.7,214.3 "
         id="polyline13" />
    </g>
    <path
       style="fill:none;stroke:#000000;stroke-width:0.371332;stroke-dasharray:none;stroke-opacity:1"
       d="m 67.962209,117.89948 11.93816,0.12355 24.268171,10.39902"
       id="path1"
       sodipodi:nodetypes="ccc" />
    <path
       style="fill:none;stroke:#d13f00;stroke-width:0.52488;stroke-linecap:round;stroke-linejoin:bevel;stroke-dasharray:none;stroke-dashoffset:0;stroke-opacity:1"
       d="m 136.39308,149.64503 -67.548286,0.20782 34.904696,-21.48761"
       id="path3"
       sodipodi:nodetypes="ccc" />
    <path
       style="fill:none;stroke:#d12000;stroke-width:0.352999;stroke-linecap:round;stroke-linejoin:bevel;stroke-dasharray:0.352999, 0.352999;stroke-dashoffset:0;stroke-opacity:1"
       id="path5"
       sodipodi:type="arc"
       sodipodi:cx="-109.30492"
       sodipodi:cy="127.07982"
       sodipodi:rx="6.342751"
       sodipodi:ry="7.067637"
       sodipodi:start="0.041278141"
       sodipodi:end="1.3356863"
       sodipodi:open="true"
       sodipodi:arc-type="arc"
       d="m -102.96757,127.37147 a 6.342751,7.067637 0 0 1 -4.8598,6.58155"
       transform="rotate(-68.499893)" />
    <text
       xml:space="preserve"
       style="font-size:2.11667px;font-family:FreeSans;-inkscape-font-specification:FreeSans;text-align:start;writing-mode:lr-tb;direction:ltr;text-anchor:start;fill:#d11f00;fill-opacity:1;stroke:#d12000;stroke-width:0;stroke-linecap:round;stroke-linejoin:bevel;stroke-dasharray:none;stroke-dashoffset:0;stroke-opacity:1"
       x="77.683594"
       y="147.87672"
       id="text6"><tspan
         sodipodi:role="line"
         id="tspan6"
         style="font-style:normal;font-variant:normal;font-weight:normal;font-stretch:normal;font-size:2.11667px;font-family:'Nimbus Roman';-inkscape-font-specification:'Nimbus Roman, ';fill:#d11f00;fill-opacity:1;stroke-width:0;stroke-dasharray:none"
         x="77.683594"
         y="147.87672">dφ</tspan></text>
    <text
       xml:space="preserve"
       style="font-size:3.52778px;font-family:FreeSans;-inkscape-font-specification:FreeSans;text-align:start;writing-mode:lr-tb;direction:ltr;text-anchor:start;fill:none;stroke:#d12000;stroke-width:0;stroke-linecap:round;stroke-linejoin:bevel;stroke-dasharray:none;stroke-dashoffset:0;stroke-opacity:1"
       x="51.95015"
       y="159.23326"
       id="text7"><tspan
         sodipodi:role="line"
         id="tspan7"
         style="font-style:normal;font-variant:normal;font-weight:normal;font-stretch:normal;font-size:3.52778px;font-family:'Linux Biolinum O';-inkscape-font-specification:'Linux Biolinum O';fill:none;fill-opacity:1;stroke-width:0;stroke-dasharray:none"
         x="51.95015"
         y="159.23326">jews control the world</tspan></text>
    <text
       xml:space="preserve"
       style="font-style:normal;font-variant:normal;font-weight:normal;font-stretch:normal;font-size:2.46944px;font-family:'Linux Biolinum O';-inkscape-font-specification:'Linux Biolinum O';text-align:start;writing-mode:lr-tb;direction:ltr;text-anchor:start;fill:#000000;fill-opacity:1;stroke:#000000;stroke-width:0;stroke-linecap:round;stroke-linejoin:bevel;stroke-dasharray:none;stroke-opacity:1"
       x="165.39255"
       y="48.208523"
       id="text1"
       transform="rotate(33.362039)"><tspan
         sodipodi:role="line"
         id="tspan1"
         style="font-size:2.46944px;fill:#000000;fill-opacity:1;stroke:#000000;stroke-width:0;stroke-opacity:1"
         x="165.39255"
         y="48.208523">Euclidean Trajectory (ε)</tspan></text>
    <text
       xml:space="preserve"
       style="font-style:normal;font-variant:normal;font-weight:normal;font-stretch:normal;font-size:2.46944px;font-family:'Linux Biolinum O';-inkscape-font-specification:'Linux Biolinum O';text-align:start;writing-mode:lr-tb;direction:ltr;text-anchor:start;fill:#d11f00;fill-opacity:1;stroke:#d12000;stroke-width:0;stroke-linecap:round;stroke-linejoin:bevel;stroke-dasharray:none"
       x="162.43341"
       y="-56.36795"
       id="text1-1"
       transform="rotate(70.681477)"><tspan
         sodipodi:role="line"
         style="font-size:2.46944px;fill:#000000;fill-opacity:1;stroke-width:0"
         x="162.43341"
         y="-56.36795"
         id="tspan2">GSL Path</tspan></text>
    <path
       style="fill:#000000;fill-opacity:1;stroke:#000000;stroke-width:0.371;stroke-linecap:round;stroke-linejoin:bevel;stroke-dasharray:none;stroke-opacity:1"
       d="m 103.65867,128.42561 c 6.64479,21.26331 6.52398,21.26331 6.52398,21.26331"
       id="path4" />
    <path
       style="fill:#a800d1;fill-opacity:1;stroke:#000000;stroke-width:0.371;stroke-linecap:round;stroke-linejoin:bevel;stroke-dasharray:0.37099999, 0.74199998;stroke-opacity:1;stroke-dashoffset:0"
       d="M 136.39935,149.56811 103.77949,128.30479"
       id="path6" />
  </g>
</svg>
